<svg xmlns="http://www.w3.org/2000/svg" width="24" height="24" viewBox="0 0 24 24" id="flag-pennant-ellipse">
  <path fill="#334155" d="M22,18c0,2.2091-4.4772,4-10,4S2,20.2091,2,18c0-1.9352,3.4355-3.5494,8-3.92V17a1,1,0,0,0,2,0V14C17.5228,14,22,15.7908,22,18Z"></path>
  <path fill="#f87171" d="M22,6.4,12,10V2Z"></path>
  <path fill="#0f172a" d="M12.5,13.5105V10.3512L22.1694,6.87a.5.5,0,0,0,.0318-.9277l-10-4.4A.4995.4995,0,0,0,11.5,2V18a.5.5,0,0,0,1,0V14.51c5.3268.1068,9,1.8847,9,3.49,0,1.6553-3.9014,3.5-9.5,3.5S2.5,19.6553,2.5,18c0-1.3768,2.8048-3.0282,7.5-3.4174v-.9962c-.014,0-.0264-.006-.04-.0049C4.9785,13.9863,1.5,15.8032,1.5,18c0,2.5234,4.6123,4.5,10.5,4.5S22.5,20.5234,22.5,18C22.5,15.549,18.1448,13.62,12.5,13.5105Zm0-10.7444,8.1528,3.5874L12.5,9.2886Z"></path>
</svg>
